<svg width="18" height="18" viewBox="0 0 18 18" fill="none" xmlns="http://www.w3.org/2000/svg">
<path d="M4.00958 1.5287C4.05578 1.4846 4.10409 1.4426 4.1566 1.40481C5.56803 0.489267 7.1958 0 9.0021 0C10.6908 0 12.2744 0.468269 13.6229 1.27881C13.7216 1.33551 13.9904 1.5203 14.1269 1.68619C12.8226 0.249883 8.9916 3.33458 8.9916 3.33458C7.66838 2.31195 6.44808 1.61689 5.54283 1.36701C4.7825 1.15912 4.25952 1.33341 4.00958 1.5287ZM15.6014 2.88521C15.5636 2.84111 15.5195 2.80121 15.4796 2.75502C15.1519 2.39384 14.7465 2.30775 14.3811 2.32875C14.0471 2.43584 12.5118 2.9881 10.6194 4.77508C10.6194 4.77508 12.7491 6.84554 14.0555 8.9643C15.3598 11.081 16.1391 12.7462 15.6602 15.0539C17.1682 13.3971 18.0042 11.2385 18 8.9979C18 6.63976 17.0926 4.4895 15.6014 2.88521ZM12.3501 9.86724C11.5204 8.93911 10.6614 8.03617 9.77713 7.16052C9.52929 6.91484 9.26674 6.65656 8.9895 6.38987C8.9895 6.38987 8.57363 6.80565 8.03594 7.35161V7.34951C7.34493 8.04876 6.44808 8.958 5.9503 9.49137C5.06395 10.4363 2.52463 13.4034 2.38391 15.0686C2.38391 15.0686 1.81892 13.7499 3.05812 10.7051C3.86675 8.71232 6.31366 5.72632 7.33443 4.75198C7.33443 4.75198 6.39977 3.72725 5.22988 3.0175L5.22148 3.0154C5.22148 3.0154 5.20677 3.0049 5.18997 2.9944C4.62708 2.65842 4.00958 2.39804 3.41938 2.36234C2.81658 2.40644 2.43222 2.84951 2.43222 2.84951C0.867458 4.5105 -0.00418558 6.71325 1.51129e-05 9C1.51129e-05 13.9704 4.02848 17.9979 9.0021 17.9979C11.6401 17.9979 14.0114 16.8619 15.6602 15.0518C15.6602 15.0497 15.4712 13.8633 14.2614 12.1603C13.9736 11.7634 12.936 10.5203 12.3501 9.86724Z" fill="#127C10"/>
</svg>
